<mxfile host="Electron" modified="2024-03-24T09:17:58.701Z" agent="Mozilla/5.0 (Macintosh; Intel Mac OS X 10_15_7) AppleWebKit/537.36 (KHTML, like Gecko) draw.io/22.1.11 Chrome/114.0.5735.289 Electron/25.9.8 Safari/537.36" etag="_pDUqd64S0Bf5MHOtA9D" version="22.1.11" type="device">
  <diagram name="第 1 页" id="8x0YZR8d6n3DJgJfGMui">
    <mxGraphModel dx="954" dy="589" grid="1" gridSize="10" guides="1" tooltips="1" connect="1" arrows="1" fold="1" page="1" pageScale="1" pageWidth="827" pageHeight="1169" math="0" shadow="0">
      <root>
        <mxCell id="0" />
        <mxCell id="1" parent="0" />
        <mxCell id="57x9DYWjgBpyXOaYXrae-15" value="" style="edgeStyle=orthogonalEdgeStyle;rounded=0;orthogonalLoop=1;jettySize=auto;html=1;entryX=0;entryY=0.5;entryDx=0;entryDy=0;" parent="1" source="57x9DYWjgBpyXOaYXrae-1" target="57x9DYWjgBpyXOaYXrae-4" edge="1">
          <mxGeometry relative="1" as="geometry">
            <mxPoint x="240" y="-20" as="targetPoint" />
          </mxGeometry>
        </mxCell>
        <mxCell id="57x9DYWjgBpyXOaYXrae-16" style="edgeStyle=orthogonalEdgeStyle;rounded=0;orthogonalLoop=1;jettySize=auto;html=1;entryX=0;entryY=0.5;entryDx=0;entryDy=0;" parent="1" source="57x9DYWjgBpyXOaYXrae-1" target="57x9DYWjgBpyXOaYXrae-8" edge="1">
          <mxGeometry relative="1" as="geometry" />
        </mxCell>
        <mxCell id="57x9DYWjgBpyXOaYXrae-1" value="战略实施、评价与控制" style="rounded=0;whiteSpace=wrap;html=1;" parent="1" vertex="1">
          <mxGeometry x="40" y="190" width="120" height="60" as="geometry" />
        </mxCell>
        <mxCell id="57x9DYWjgBpyXOaYXrae-2" value="" style="edgeStyle=orthogonalEdgeStyle;rounded=0;orthogonalLoop=1;jettySize=auto;html=1;entryX=0;entryY=0.5;entryDx=0;entryDy=0;" parent="1" source="57x9DYWjgBpyXOaYXrae-4" target="57x9DYWjgBpyXOaYXrae-9" edge="1">
          <mxGeometry relative="1" as="geometry" />
        </mxCell>
        <mxCell id="57x9DYWjgBpyXOaYXrae-3" style="edgeStyle=orthogonalEdgeStyle;rounded=0;orthogonalLoop=1;jettySize=auto;html=1;entryX=0;entryY=0.5;entryDx=0;entryDy=0;" parent="1" source="57x9DYWjgBpyXOaYXrae-4" target="57x9DYWjgBpyXOaYXrae-10" edge="1">
          <mxGeometry relative="1" as="geometry" />
        </mxCell>
        <mxCell id="57x9DYWjgBpyXOaYXrae-4" value="2.战略绩效评价" style="rounded=0;whiteSpace=wrap;html=1;" parent="1" vertex="1">
          <mxGeometry x="240" y="80" width="120" height="60" as="geometry" />
        </mxCell>
        <mxCell id="57x9DYWjgBpyXOaYXrae-5" value="" style="edgeStyle=orthogonalEdgeStyle;rounded=0;orthogonalLoop=1;jettySize=auto;html=1;entryX=0;entryY=0.5;entryDx=0;entryDy=0;" parent="1" source="57x9DYWjgBpyXOaYXrae-8" target="57x9DYWjgBpyXOaYXrae-12" edge="1">
          <mxGeometry relative="1" as="geometry" />
        </mxCell>
        <mxCell id="57x9DYWjgBpyXOaYXrae-6" style="edgeStyle=orthogonalEdgeStyle;rounded=0;orthogonalLoop=1;jettySize=auto;html=1;entryX=0;entryY=0.5;entryDx=0;entryDy=0;" parent="1" source="57x9DYWjgBpyXOaYXrae-8" target="57x9DYWjgBpyXOaYXrae-11" edge="1">
          <mxGeometry relative="1" as="geometry" />
        </mxCell>
        <mxCell id="57x9DYWjgBpyXOaYXrae-7" style="edgeStyle=orthogonalEdgeStyle;rounded=0;orthogonalLoop=1;jettySize=auto;html=1;entryX=0;entryY=0.5;entryDx=0;entryDy=0;" parent="1" source="57x9DYWjgBpyXOaYXrae-8" target="57x9DYWjgBpyXOaYXrae-13" edge="1">
          <mxGeometry relative="1" as="geometry" />
        </mxCell>
        <mxCell id="57x9DYWjgBpyXOaYXrae-8" value="3.战略控制" style="rounded=0;whiteSpace=wrap;html=1;" parent="1" vertex="1">
          <mxGeometry x="240" y="280" width="120" height="60" as="geometry" />
        </mxCell>
        <mxCell id="57x9DYWjgBpyXOaYXrae-9" value="1.平衡记分卡原理、特点及体系" style="rounded=0;whiteSpace=wrap;html=1;" parent="1" vertex="1">
          <mxGeometry x="440" y="40" width="120" height="60" as="geometry" />
        </mxCell>
        <mxCell id="57x9DYWjgBpyXOaYXrae-10" value="2.平衡记分卡指标分析" style="rounded=0;whiteSpace=wrap;html=1;" parent="1" vertex="1">
          <mxGeometry x="440" y="120" width="120" height="60" as="geometry" />
        </mxCell>
        <mxCell id="57x9DYWjgBpyXOaYXrae-11" value="1.战略控制概述" style="rounded=0;whiteSpace=wrap;html=1;" parent="1" vertex="1">
          <mxGeometry x="440" y="200" width="120" height="60" as="geometry" />
        </mxCell>
        <mxCell id="57x9DYWjgBpyXOaYXrae-12" value="2.战略控制系统" style="rounded=0;whiteSpace=wrap;html=1;" parent="1" vertex="1">
          <mxGeometry x="440" y="280" width="120" height="60" as="geometry" />
        </mxCell>
        <mxCell id="57x9DYWjgBpyXOaYXrae-13" value="3.战略重构" style="rounded=0;whiteSpace=wrap;html=1;" parent="1" vertex="1">
          <mxGeometry x="440" y="360" width="120" height="60" as="geometry" />
        </mxCell>
      </root>
    </mxGraphModel>
  </diagram>
</mxfile>
